<?xml version="1.0" encoding="utf-8"?>
<!-- Generator: Adobe Illustrator 19.2.1, SVG Export Plug-In . SVG Version: 6.00 Build 0)  -->
<svg version="1.1" id="layer" xmlns="http://www.w3.org/2000/svg" xmlns:xlink="http://www.w3.org/1999/xlink" x="0px" y="0px"
	 viewBox="0 0 652 652" style="enable-background:new 0 0 652 652;" xml:space="preserve">
<style type="text/css">
	.st0{fill:#0F8B4B;}
	.st1{fill:#FFFFFF;}
</style>
<g>
	<path class="st0" d="M45.1,333.2c4.3,8,16.4,7,27,0.6c-10.3-69.1,53.7-66.4,21.8,2.1c-3.1,3.8,7.3,5,13.4-0.1l-0.2,13.9
		c-10.8,7-22.2,3.3-26.6-1.6c-25.6,16.7-59.2,5.7-53.1-25.7c-22.9-44.9,17.7-65.2,42.2-54.1l-0.3,18.2c-19.4-9.1-34.9,4.2-30.1,20.5
		C65.3,288.1,82.4,335.8,45.1,333.2"/>
	<path class="st1" d="M45.5,318.7c0,2,1.5,3.6,3.5,3.6c2,0,3.6-1.5,3.6-3.5c0-2-1.5-3.6-3.5-3.6C47.2,315.2,45.5,316.7,45.5,318.7"
		/>
	<path class="st1" d="M83.9,313c-0.7,5.2,0,9.6,1.5,9.8c1.6,0.2,3.4-3.8,4.1-9c0.7-5.2,0-9.6-1.5-9.8
		C86.5,303.8,84.7,307.8,83.9,313"/>
	<path class="st0" d="M170.6,271.5c-85.4-13.2-67,123,9.8,75.3c19.2,12.1,37.2-3.3,37.4-15c5.8,0,8.5,2.6,8.4,6.5l-0.2,13.9
		l12.7,0.2l0.2-14.5c-0.1-5.1,3.6-7.2,8.2-7.4l0.2-14.4c-4.6-1.2-10.6,2.1-11.1,5c-4-5.9-10.1-8.1-17.1-8.2
		c-16.2-33.8-47.2,7.3-19.8,16.5c7.1,1,2.8,8.4-3.6,7.9c-6.6-0.4-6.9-9.4-6.5-14.8c-0.5-11.4-21.2-5.8-18,10.4
		c-46.8,35.1-62.1-60.8-1-45.1L170.6,271.5z"/>
	<path class="st1" d="M201.2,315.3c0,1.4,1.1,2.6,2.6,2.7c1.5,0,2.7-1.1,2.7-2.6c0-1.4-1.1-2.6-2.6-2.7
		C202.4,312.6,201.2,313.8,201.2,315.3"/>
	<path class="st0" d="M259,285.2l-2.5,31.6l-4.8-0.1l-0.2,14.2l3.3,0.2l-0.4,23.1l14,0.2l0.3-17.5c-0.1-2,3.7-3.3,5.9,2.8
		c6.9,21.2,30.7,22,40.1,12.9l0.3-16.2c-7.5,5.2-16.8,8.7-22.9,0.2c46.9-19.5,4.5-61.8-17.9-17.9l-4.3-0.1l3.1-33.5L259,285.2z"/>
	<path class="st1" d="M291.3,317.2c-1.8,2.5-2.3,5.2-1.1,6c1.2,0.9,3.6-0.4,5.4-2.9c1.8-2.5,2.3-5.2,1.1-6
		C295.5,313.4,293,314.7,291.3,317.2"/>
	<path class="st0" d="M341.9,250.1l3.8,60.1c-22.5,21.9-25.3,82-1.6,83.5c25.8-2,18.3-60.4,17.8-65.3c-3-11.9,9.9-6.8,11,1.6l1,27.2
		l15.3,0.2l0.4-22.8c0.3-9.8,11.9-9.6,11.9,0.5l-0.3,18.5l16.2,0.3l0.3-18.2c-2.1-32.1-26.2-27-32.7-18.4
		c-5.6-13.1-17.4-15-24.6-14.3l-3.5-53L341.9,250.1z"/>
	<path class="st1" d="M343.1,353.4c-0.5,8.9,0.5,16.2,2,16.3c1.6,0.1,3.2-7.1,3.7-16c0.5-8.9-0.4-16.2-2-16.3
		C345.2,337.4,343.5,344.5,343.1,353.4"/>
	<path class="st0" d="M449.7,392.2c19.3,1.8,22.2-17.3,21-28.7l17.8-12.3c5.9,11.5,31.7,10.4,43.9,3c5.1,4.1,18.2,2.3,22.3-1.1
		l36.5-21.7c11-6.6,13.8,4,10.3,7.7c-5.4,5.4-15.7,8.4-18.1,8.9l-0.3,16.2c41.2-1.4,49.7-51.1,19.7-51c-16-1.3-42.4,22-55.6,25.3
		c15.5-36-46.4-38.6-32.2,6c-6.4,2.8-12,0.5-14.3-3c14-18,20-46.8-2.7-50.9c-13.8-2.4-28.1,21.4-17.9,50.2c-3.1,1.3-9.3,3.2-9.3,3.2
		l0.3-21l-15.2-0.2c-4.2,11.2-15.5,16.9-17.5,14.7c-2.3-8,8.4-16.5,28.9-17.5l0.3-16c-26.6,0.9-44,14.6-46.9,30.3
		c-1,23,20,21.9,33,12.8l-0.1,5.1C428.6,361.4,428.8,390.1,449.7,392.2"/>
	<path class="st1" d="M449.3,372.2c-0.2,2.1,1.1,4,2.9,4.1c1.8,0.2,3.4-1.4,3.6-3.6c0.2-2.1-1.1-4-2.9-4.2
		C451.1,368.4,449.5,370,449.3,372.2"/>
	<path class="st1" d="M491.5,316.6c-0.8,4.9-0.2,9.1,1.3,9.3c1.5,0.3,3.3-3.5,4.1-8.4c0.8-4.9,0.2-9.1-1.3-9.3
		C494.1,307.9,492.3,311.7,491.5,316.6"/>
	<path class="st1" d="M528.4,330.9c0,3.2,1.6,5.8,3.7,5.8c2.1,0,3.8-2.5,3.9-5.7c0-3.2-1.6-5.8-3.7-5.8
		C530.2,325.2,528.5,327.7,528.4,330.9"/>
	<polygon class="st0" points="580.7,283.3 588.5,296.8 557.2,316.3 547.5,304 	"/>
</g>
</svg>
