<?xml version="1.0" encoding="utf-8"?>
<!-- Generator: Adobe Illustrator 19.2.1, SVG Export Plug-In . SVG Version: 6.00 Build 0)  -->
<svg version="1.1" id="layer" xmlns="http://www.w3.org/2000/svg" xmlns:xlink="http://www.w3.org/1999/xlink" x="0px" y="0px"
	 viewBox="0 0 652 652" style="enable-background:new 0 0 652 652;" xml:space="preserve">
<style type="text/css">
	.st0{fill:#828282;}
	.st1{fill:#DC0028;}
</style>
<g>
	<g>
		<path class="st0" d="M143.5,364c-4.1,0-7.2-0.9-7.2-0.9v-6.7h3.2v3.5l0.6,0.6c0.9,0.2,2.1,0.3,3.4,0.3c2.8,0,3.7-1.3,3.7-3.2
			c0-2-0.8-2.8-3.7-3.6c-4.9-1.3-7.2-3.1-7.2-7.7c0-4.7,3.8-7.1,9.1-7.1c3.7,0,6.5,0.9,6.5,0.9v6.4h-3.2v-3.2l-0.6-0.6
			c-0.8-0.1-1.7-0.2-2.7-0.2c-2.5,0-3.9,1.1-3.9,2.9c0,1.8,0.4,2.6,4.1,3.7c4.5,1.2,7.1,3.1,7.1,7.3C152.8,361.5,149,364,143.5,364z
			"/>
		<path class="st0" d="M169.9,355.3h-9.2c0.2,3.9,1.6,5.3,4.9,5.3c1.8,0,3.3-0.6,3.8-0.7v2.8c-0.9,0.6-2.7,1.3-5.6,1.3
			c-4.5,0-8.4-2.6-8.4-9.1c0-6.7,3.6-9.9,7.9-9.9c4.2,0,7.2,2.8,7.2,7.4v2.3L169.9,355.3z M160.8,352.9h4.8V352
			c0-2.7-0.6-3.9-2.1-3.9C161.8,348.1,161,349.8,160.8,352.9z"/>
		<path class="st0" d="M180.6,356.7c-0.8,0-1.6-0.1-2.4-0.2c-0.5,0.3-0.7,0.8-0.7,1.2c0,0.7,0.4,1,1.4,1h5.2c3.2,0,5.9,0.9,5.9,4.8
			c0,4.4-4.4,6.4-9.8,6.4c-4.6,0-7.6-0.9-7.6-3.9c0-1.5,1.2-2.4,2.4-3c-1.3-0.6-2.1-1.7-2.1-3.3c0-1.4,0.9-3,2.9-4.2
			c-1.6-1-2.5-2.5-2.5-4.7c0-4,3.4-5.8,7.3-5.8c1,0,1.9,0.1,2.8,0.4h6.5v2.5h-2.3l-0.3,0.3c0.4,0.8,0.7,1.6,0.7,2.7
			C188,354.8,184.6,356.7,180.6,356.7z M177.6,363.3c-0.3,0.4-0.6,1-0.6,2c0,1.4,0.9,2.2,3.4,2.2c2.7,0,4.5-0.8,4.5-2.7
			c0-1.3-0.8-1.6-2.2-1.6L177.6,363.3L177.6,363.3z M180.6,347.8c-1.6,0-2.6,1-2.6,3c0,2,0.9,3,2.6,3c1.7,0,2.6-1,2.6-3
			C183.2,348.8,182.3,347.8,180.6,347.8z"/>
		<path class="st0" d="M207.3,345.3c1.4,0,1.6,0.8,1.6,1.5v13.7l0.6,0.6h1.5v2.5h-5.5c-1.4,0-1.6-0.8-1.6-1.5v-0.6h-0.2
			c-0.6,0.6-2.2,2.4-4.9,2.4c-4.1,0-5.3-2.5-5.3-5.5v-10l-0.6-0.6h-1.5v-2.5h5.8c1.4,0,1.6,0.8,1.6,1.5v10.8c0,1,0.1,2.5,2.1,2.5
			c1.2,0,2.2-0.6,2.7-0.9v-10.7l-0.6-0.6h-1.5v-2.5L207.3,345.3L207.3,345.3z"/>
		<path class="st0" d="M220.9,361.1h1.9v2.5h-9.9v-2.5h1.5l0.6-0.6v-12l-0.6-0.6h-1.5v-2.5h5.5c1.4,0,1.6,0.8,1.6,1.5v0.9h0.2
			c0.6-0.7,2.3-2.8,5-2.8c0.7,0,1.3,0.1,1.3,0.1v7.2h-3.1v-2.4l-0.6-0.6c-1.1,0.2-2,0.6-2.5,0.9v10.3L220.9,361.1z"/>
		<path class="st0" d="M236.7,364c-4.7,0-8.3-2.9-8.3-9.5c0-6.6,3.6-9.5,8.3-9.5c4.7,0,8.3,2.9,8.3,9.5
			C244.9,361,241.3,364,236.7,364z M236.7,348.2c-2.3,0-2.9,2-2.9,6.2c0,4.2,0.6,6.2,2.9,6.2c2.3,0,2.9-2,2.9-6.2
			C239.6,350.2,239,348.2,236.7,348.2z"/>
		<path class="st0" d="M253.5,364c-3.7,0-5.9-0.8-5.9-0.8V358h2.9v2.3l0.6,0.6c0.7,0.1,1.5,0.1,2.5,0.1c2,0,2.7-0.9,2.7-2.2
			c0-1.3-0.4-2-3.3-2.6c-4.3-0.9-5.2-3.2-5.2-5.5c0-3.7,2.7-5.8,7.4-5.8c3,0,5.3,0.6,5.3,0.6v5h-2.9v-2.1l-0.6-0.6
			c-0.6-0.1-1.1-0.1-1.8-0.1c-1.7,0-2.8,0.8-2.8,1.9c0,1.1,0.1,1.9,2.7,2.5c4.5,0.9,6.2,2.6,6.2,5.4C261.2,361.8,258,364,253.5,364z
			"/>
	</g>
	<g>
		<path class="st0" d="M163.1,326.7c-2.2,1-5.5,2.3-10.9,2.3c-11.6,0-18.9-6.5-18.9-20.7c0-14.2,7.9-20.7,20-20.7c5,0,9,1.2,9,1.2
			v10.9H157v-5.2l-1-1c-0.9-0.1-1.7-0.2-2.7-0.2c-7.9,0-10.4,5.3-10.4,14.2c0,10.2,2.4,15.5,10.8,15.5c1,0,2,0,2.9-0.1l1-1v-5.6h5.4
			C163.1,316.3,163.1,326.7,163.1,326.7z"/>
		<path class="st0" d="M194.9,328.4h-9.2c-2.3,0-2.6-1.3-2.6-2.5V325h-0.3c-0.9,1-3.7,4-8.2,4c-6.6,0-8.8-4.2-8.8-9.2
			c0-5.4,4-8.6,10.2-8.6h6.5v-2.8c0-3.3-0.2-5.8-5.1-5.8c-0.8,0-1.7,0.1-2.6,0.2l-0.9,0.9v4h-5.4V299c0,0.1,4.8-1.7,11.9-1.7
			c8.2,0,10.8,4.4,10.8,9.8v16.1l1,1h2.5L194.9,328.4L194.9,328.4z M182.6,320.9v-5h-4.1c-2.7,0-3.9,1.2-3.9,3.1
			c0,2.4,0.8,3.5,3.5,3.5C180.1,322.5,181.7,321.6,182.6,320.9z"/>
		<path class="st0" d="M208.6,302.2v21l1,1h5.6v4.2c0,0-3.7,0.6-7.8,0.6c-5,0-7.6-1.8-7.6-7.1v-19.6h-3.6V298h2.5l1-1l3.3-7.1h5.5
			v8.2h6.4v4.2L208.6,302.2L208.6,302.2z"/>
		<path class="st0" d="M245.6,328.4h-9.2c-2.3,0-2.6-1.3-2.6-2.5V325h-0.3c-0.9,1-3.7,4-8.2,4c-6.6,0-8.8-4.2-8.8-9.2
			c0-5.4,4-8.6,10.2-8.6h6.5v-2.8c0-3.3-0.2-5.8-5.1-5.8c-0.7,0-1.7,0.1-2.6,0.2l-0.9,0.9v4h-5.4V299c0,0.1,4.8-1.7,11.9-1.7
			c8.2,0,10.8,4.4,10.8,9.8v16.1l1,1h2.5L245.6,328.4L245.6,328.4z M233.3,320.9v-5h-4.1c-2.7,0-3.9,1.2-3.9,3.1
			c0,2.4,0.8,3.5,3.5,3.5C230.8,322.5,232.4,321.6,233.3,320.9z"/>
		<path class="st0" d="M256.8,286.4c2.3,0,2.6,1.3,2.6,2.5v34.3l1,1h2.6v4.2h-15.9v-4.2h2.5l1-1v-31.6l-1-1h-2.5v-4.2H256.8z"/>
		<path class="st0" d="M294.1,328.4h-9.1c-2.3,0-2.7-1.3-2.7-2.5V325H282c-0.9,1-3.7,4-8.2,4c-6.6,0-8.8-4.2-8.8-9.2
			c0-5.4,4-8.6,10.2-8.6h6.5v-2.8c0-3.3-0.2-5.8-5.1-5.8c-0.8,0-1.7,0.1-2.6,0.2l-0.9,0.9v4h-5.4V299c0,0.1,4.8-1.7,11.9-1.7
			c8.2,0,10.8,4.4,10.8,9.8v16.1l1,1h2.5L294.1,328.4L294.1,328.4z M281.7,320.9v-5h-4.1c-2.6,0-3.9,1.2-3.9,3.1
			c0,2.4,0.8,3.5,3.5,3.5C279.2,322.5,280.8,321.6,281.7,320.9z"/>
		<path class="st0" d="M296,328.4v-4.2h2.5l1-1v-20l-1-1H296v-4.2h9.2c2.3,0,2.7,1.3,2.7,2.5v0.9h0.3c0.9-1,3.9-4,8.5-4
			c6.8,0,8.9,4.1,8.9,9.2v16.6l1,1h2.5v4.2h-15.2v-4.2h1.9l1-1v-15.3c0-1.7-0.2-4.1-3.8-4.1c-2,0-3.7,0.9-4.5,1.5v17.8l1,1h1.9v4.2
			H296z"/>
		<path class="st0" d="M359.8,328.4h-9.2c-2.3,0-2.6-1.3-2.6-2.5V325h-0.3c-0.9,1-3.7,4-8.2,4c-6.6,0-8.7-4.2-8.7-9.2
			c0-5.4,4-8.6,10.2-8.6h6.5v-2.8c0-3.3-0.2-5.8-5.1-5.8c-0.8,0-1.7,0.1-2.6,0.2l-0.9,0.9v4h-5.4V299c0,0.1,4.8-1.7,11.9-1.7
			c8.2,0,10.8,4.4,10.8,9.8v16.1l1,1h2.5L359.8,328.4L359.8,328.4z M347.4,320.9v-5h-4.1c-2.7,0-3.9,1.2-3.9,3.1
			c0,2.4,0.8,3.5,3.5,3.5C344.9,322.5,346.5,321.6,347.4,320.9z"/>
		<path class="st0" d="M387.6,329c-10.4,0-17.2-6.4-17.2-20.7c0-14.3,6.7-20.7,17.2-20.7c10.4,0,17.2,6.4,17.2,20.7
			C404.8,322.6,398.1,329,387.6,329z M387.6,293.5c-5.8,0-7.5,4.8-7.5,14.7c0,10,1.7,14.7,7.5,14.7c5.8,0,7.5-4.8,7.5-14.7
			C395.1,298.3,393.4,293.5,387.6,293.5z"/>
		<path class="st0" d="M431.4,326.7c-1.5,1.5-5.1,2.3-8.5,2.3c-7.8,0-14.6-4.5-14.6-15.4s7.1-16.2,15.5-16.2c4.4,0,7.7,1.3,7.7,1.3
			v9.8h-5.4v-4.5l-1-1c-0.2-0.1-0.4-0.1-0.6-0.1c-5.1,0-7.2,3.7-7.2,10.4c0,7.5,2.8,10.1,8.1,10.1c2.5,0,5.2-0.8,6-1.1L431.4,326.7
			L431.4,326.7z"/>
		<path class="st0" d="M457.8,326.7c-1.5,1.5-5.1,2.3-8.5,2.3c-7.8,0-14.6-4.5-14.6-15.4s7.1-16.2,15.5-16.2c4.4,0,7.7,1.3,7.7,1.3
			v9.8h-5.4v-4.5l-1-1c-0.2-0.1-0.4-0.1-0.6-0.1c-5.1,0-7.2,3.7-7.2,10.4c0,7.5,2.8,10.1,8.1,10.1c2.5,0,5.2-0.8,6-1.1L457.8,326.7
			L457.8,326.7z"/>
		<path class="st0" d="M470.7,297.9c2.3,0,2.6,1.3,2.6,2.5v22.7l1,1h2.6v4.2H461v-4.2h2.5l1-1v-20l-1-1H461v-4.2H470.7z
			 M468.4,285.5c3.3,0,4.9,1.8,4.9,4.6c0,2.8-1.6,4.6-4.9,4.6c-3.3,0-4.9-1.8-4.9-4.6C463.5,287.3,465.1,285.5,468.4,285.5z"/>
		<path class="st0" d="M501.1,328.4c-2.3,0-2.6-1.3-2.6-2.5V325h-0.2c-1.4,1.9-4.4,4-7.8,4c-6,0-11-4.6-11-15.5
			c0-10.9,5-16.1,11-16.1c2.9,0,5.9,1.7,7.5,3.6v-9.3l-1-1h-2.5v-4.2h9.7c2.3,0,2.6,1.3,2.6,2.5v34.3l1,1h2.5v4.2L501.1,328.4
			L501.1,328.4z M498,320.5v-15.1c-1.5-1.2-3.2-1.5-4.4-1.5c-3.9,0-5.2,2.7-5.2,9.3c0,6.6,1.3,9.3,5.2,9.3
			C494.8,322.4,496.4,321.8,498,320.5z"/>
		<path class="st0" d="M536.8,314.7h-15.3c0.3,6.4,2.6,8.8,8.2,8.8c3.1,0,5.5-0.9,6.4-1.2v4.6c-1.5,1-4.4,2.1-9.4,2.1
			c-7.4,0-14.1-4.4-14.1-15.2c0-11.2,6-16.5,13.2-16.5c7,0,11.9,4.7,11.9,12.4v3.9L536.8,314.7z M521.6,310.6h7.9v-1.5
			c0-4.4-0.9-6.6-3.6-6.6C523.3,302.6,522,305.4,521.6,310.6z"/>
		<path class="st0" d="M540.6,328.4v-4.2h2.5l1-1v-20l-1-1h-2.5v-4.2h9.2c2.3,0,2.6,1.3,2.6,2.5v0.9h0.3c0.9-1,3.9-4,8.5-4
			c6.8,0,8.9,4.1,8.9,9.2v16.6l1,1h2.5v4.2h-15.2v-4.2h1.9l1-1v-15.3c0-1.7-0.2-4.1-3.8-4.1c-2,0-3.7,0.9-4.5,1.5v17.8l1,1h1.9v4.2
			H540.6z"/>
		<path class="st0" d="M587.5,302.2v21l1,1h5.6v4.2c0,0-3.7,0.6-7.8,0.6c-5,0-7.6-1.8-7.6-7.1v-19.6h-3.6V298h2.5l1-1l3.3-7.1h5.5
			v8.2h6.4v4.2L587.5,302.2L587.5,302.2z"/>
		<path class="st0" d="M620.1,314.7h-15.3c0.3,6.4,2.7,8.8,8.2,8.8c3,0,5.5-0.9,6.4-1.2v4.6c-1.5,1-4.4,2.1-9.4,2.1
			c-7.4,0-14-4.4-14-15.2c0-11.2,6-16.5,13.2-16.5c7,0,11.9,4.7,11.9,12.4v3.9L620.1,314.7z M604.9,310.6h7.9v-1.5
			c0-4.4-0.9-6.6-3.6-6.6C606.6,302.6,605.2,305.4,604.9,310.6z"/>
	</g>
	<path class="st1" d="M64.6,328c11.5,11.2,16,30,18,37.4c1.2,4.3,5.6,6.9,10,5.8c4.3-1.2,6.9-5.6,5.8-10c-2-7.4-7.5-26-3.1-41.4
		c3.9-15.6,18-28.9,23.4-34.3c3.2-3.2,3.2-8.3,0-11.5c-3.2-3.2-8.3-3.2-11.5,0c-5.4,5.4-18.7,19.5-34.3,23.4l0,0
		c-15.5,4.4-34-1.1-41.4-3.1c-4.4-1.2-8.8,1.4-10,5.8c-1.2,4.3,1.4,8.8,5.8,10C34.6,312,53.4,316.4,64.6,328L64.6,328z"/>
</g>
</svg>
